<svg width="18" height="18" viewBox="0 0 18 18" fill="none" xmlns="http://www.w3.org/2000/svg">
<path d="M2.26202 1.11298C1.94472 0.795675 1.43028 0.795675 1.11298 1.11298C0.795675 1.43028 0.795675 1.94472 1.11298 2.26202L7.85095 9L1.11298 15.738C0.795675 16.0553 0.795675 16.5697 1.11298 16.887C1.43028 17.2043 1.94472 17.2043 2.26202 16.887L9 10.149L15.738 16.887C16.0553 17.2043 16.5697 17.2043 16.887 16.887C17.2043 16.5697 17.2043 16.0553 16.887 15.738L10.149 9L16.887 2.26202C17.2043 1.94472 17.2043 1.43028 16.887 1.11298C16.5697 0.795675 16.0553 0.795675 15.738 1.11298L9 7.85095L2.26202 1.11298Z" fill="#F7F7F7"/>
</svg>
