<svg width="14" height="14" viewBox="0 0 14 14" fill="none" xmlns="http://www.w3.org/2000/svg">
<path fill-rule="evenodd" clip-rule="evenodd" d="M12 6.25C12 7.65791 11.494 8.94764 10.6539 9.94724L13.3532 12.6465C13.5484 12.8418 13.5484 13.1584 13.3532 13.3536C13.1579 13.5489 12.8413 13.5489 12.6461 13.3536L9.94677 10.6543C8.94724 11.4941 7.65769 12 6.25 12C3.07436 12 0.5 9.42564 0.5 6.25C0.5 3.07436 3.07436 0.5 6.25 0.5C9.42564 0.5 12 3.07436 12 6.25ZM1.5 6.25C1.5 3.62665 3.62665 1.5 6.25 1.5C8.87335 1.5 11 3.62665 11 6.25C11 7.56115 10.4688 8.74822 9.60979 9.60772L9.60854 9.60897C8.749 10.4682 7.56141 11 6.25 11C3.62665 11 1.5 8.87335 1.5 6.25Z" fill="#808080"/>
</svg>
